<?xml version="1.0" encoding="UTF-8"?>
<svg id="Layer_1" data-name="Layer 1" xmlns="http://www.w3.org/2000/svg" viewBox="0 0 1080 1080">
  <defs>
    <style>
      .cls-1 {
        fill: #ffde00;
      }

      .cls-2 {
        fill: #1c1c1c;
      }
    </style>
  </defs>
  <g>
    <circle class="cls-1" cx="540" cy="540" r="540"/>
    <g>
      <path class="cls-2" d="M449.5,132.11c5.81,17.1-4.51,33.01-25.88,40.27l-36.9,12.55c-4.42,1.5-7.8-.05-9.31-4.46l-29.26-86.05c-1.5-4.42.24-7.71,4.66-9.21l32.77-11.14c20.23-6.88,38.53-1.66,44.34,15.44,2.81,8.26,1.3,18.3-8.93,26.08,14.3-2.8,25.07,6.42,28.51,16.53ZM374.58,97.82l8.24,24.22,11.97-4.07c12.82-4.36,16.01-12.28,13.83-18.69-2.52-7.41-10.24-9.55-18.65-6.69l-15.39,5.23ZM426.69,137.96c-2.23-6.55-9.97-11.08-23.21-6.57l-15.67,5.33,8.38,24.65,20.37-6.93c8.97-3.06,12.36-9.93,10.13-16.48Z"/>
      <path class="cls-2" d="M491.9,100.82c.54-29.63,23.86-53.88,56.79-53.28,32.94.6,55.35,25.68,54.82,55.31-.54,29.63-23.86,53.88-56.8,53.28-32.94-.6-55.36-25.69-54.81-55.32ZM579.59,102.42c.34-18.65-12.63-33.78-31.27-34.12-18.65-.34-32.01,14.31-32.35,32.96-.34,18.65,12.48,33.78,31.13,34.12,18.65.34,32.16-14.31,32.5-32.96Z"/>
      <path class="cls-2" d="M643.06,159.75l30.6-85.58c1.57-4.4,4.98-5.89,9.37-4.32l8.79,3.14c4.39,1.57,5.94,4.84,4.37,9.23l-26.24,73.4,37.98,13.58c4.39,1.57,6.08,4.89,4.51,9.28l-1.93,5.39c-1.57,4.39-4.98,5.89-9.37,4.31l-53.56-19.15c-4.4-1.58-6.09-4.89-4.51-9.28Z"/>
      <path class="cls-2" d="M744.92,201.89l55.5-71.94c2.85-3.69,6.55-4.06,10.25-1.22l27.52,21.23c25.37,19.57,28.22,51.6,10.48,74.58-17.82,23.11-49.43,28.37-74.8,8.8l-27.52-21.22c-3.69-2.85-4.28-6.53-1.43-10.22ZM784.27,215.9c15.84,12.22,33.94,8.71,45.33-6.06,11.48-14.89,10.2-33.17-5.64-45.39l-12.51-9.65-39.69,51.46,12.51,9.64Z"/>
      <path class="cls-2" d="M925.29,269.22l-19.74,13.25,18.95,28.23c2.6,3.87,1.9,7.42-1.97,10.02l-3.37,2.26c-3.87,2.6-7.55,1.99-10.15-1.88l-18.96-28.23-18.74,12.58,22.39,33.35c2.6,3.87,1.9,7.42-1.97,10.02l-4.75,3.19c-3.87,2.6-7.42,1.9-10.02-1.97l-31.62-47.1c-2.6-3.87-1.99-7.54,1.89-10.14l75.45-50.66c3.87-2.6,7.51-1.78,10.11,2.09l31.62,47.09c2.6,3.87,1.9,7.42-1.97,10.02l-4.75,3.19c-3.87,2.6-7.42,1.9-10.02-1.97l-22.39-33.35Z"/>
      <path class="cls-2" d="M945.81,419.46l-3.9-13.44-29.19,8.47c-4.48,1.3-7.65-.45-8.95-4.93l-2.6-8.96c-1.3-4.48.4-7.79,4.88-9.09l87.27-25.32c4.48-1.3,7.69.59,8.99,5.07l11.27,38.86c6.24,21.52-5.6,37.96-23.94,43.29-14.88,4.31-28.97-.53-36.69-13.64-9.93,4.13-18.5,12.88-16.08,21.27.88,3.03,1.67,4.69,3.09,6.31,2.66,3.77,2.3,5.76-1.06,8.77l-2.51,2.13c-3.36,3.01-6.81,3.54-9.88.52-4.06-4.3-7.23-9.81-9.08-16.17-7.25-24.99,17.29-38.69,28.36-43.16ZM964.13,421.04c2.39,8.24,10.26,11.59,18.35,9.25,8.37-2.43,13.18-9.62,10.84-17.71l-5.74-19.8-29.19,8.46,5.74,19.79Z"/>
      <path class="cls-2" d="M936.03,510.35l89.48,39.71c3.69,1.54,5.5,4.49,5.29,8.7l-.53,10.67c-.21,4.2-2.3,6.82-6.13,8.13l-93,31.08c-5.05,1.55-8.25-.71-7.98-6.13l.49-9.77c.2-4.06,2.15-6.82,6.13-8.13l14.09-4.57,2.02-40.58-13.42-5.79c-3.83-1.7-5.65-4.5-5.45-8.56l.47-9.47c.27-5.41,3.68-7.35,8.55-5.3ZM962.88,576.18l43.15-13.22-41.6-17.89-1.55,31.11Z"/>
      <path class="cls-2" d="M950.03,646.87c3.24,1.23,7.42,3.78,10.86,7.02,2.98,2.74,3.18,6.04,1.79,9.69l-2.56,6.75c-1.87,4.93-5.04,5.66-8.79,2.78-2.77-2.02-5.34-3.31-6.74-3.84-9.01-3.42-19.72-2.34-24.31,9.76-4.65,12.24,1.76,22.08,18.36,28.38l48.4,18.37c4.36,1.65,5.84,4.95,4.19,9.32l-3.31,8.72c-1.65,4.36-5.01,5.99-9.37,4.33l-48.4-18.38c-30.1-11.43-39.16-32.09-29.5-57.55,11-28.98,33.63-31.34,49.39-25.35Z"/>
    </g>
    <g>
      <path class="cls-2" d="M634.96,947.1c-6-17.03,4.14-33.05,25.42-40.56l36.75-12.97c4.4-1.55,7.81-.04,9.36,4.36l30.23,85.71c1.55,4.4-.15,7.71-4.55,9.26l-32.64,11.51c-20.15,7.11-38.52,2.09-44.52-14.93-2.91-8.23-1.51-18.3,8.64-26.18-14.28,2.96-25.14-6.13-28.7-16.21ZM657.7,940.99c2.3,6.53,10.09,10.96,23.29,6.31l15.61-5.51-8.66-24.54-20.29,7.15c-8.94,3.15-12.25,10.06-9.95,16.59ZM710.26,980.53l-8.51-24.12-11.92,4.2c-12.77,4.51-15.87,12.46-13.62,18.85,2.6,7.38,10.35,9.43,18.72,6.48l15.33-5.41Z"/>
      <path class="cls-2" d="M592.98,978.84c-.2,29.64-23.24,54.15-56.19,53.92-32.94-.22-55.64-25.06-55.44-54.69.21-29.63,23.25-54.15,56.19-53.92,32.94.22,55.64,25.06,55.43,54.69ZM505.29,978.23c-.13,18.66,13,33.64,31.65,33.77,18.65.13,31.84-14.67,31.97-33.33.13-18.65-12.86-33.64-31.51-33.76-18.65-.13-31.99,14.67-32.12,33.32Z"/>
      <path class="cls-2" d="M441.16,921.62l-29.63,85.93c-1.52,4.41-4.91,5.95-9.33,4.42l-8.82-3.04c-4.41-1.52-6-4.78-4.47-9.18l25.4-73.69-38.12-13.15c-4.41-1.52-6.14-4.82-4.62-9.23l1.86-5.41c1.52-4.4,4.92-5.94,9.33-4.42l53.77,18.54c4.41,1.52,6.14,4.82,4.62,9.23Z"/>
      <path class="cls-2" d="M338.84,880.64l-54.68,72.57c-2.81,3.72-6.51,4.13-10.24,1.33l-27.75-20.91c-25.59-19.28-28.81-51.27-11.33-74.46,17.56-23.31,49.11-28.93,74.7-9.64l27.75,20.91c3.73,2.8,4.35,6.48,1.55,10.2ZM299.33,867.07c-15.98-12.04-34.04-8.31-45.27,6.58-11.32,15.02-9.82,33.28,6.16,45.33l12.62,9.5,39.1-51.91-12.62-9.51Z"/>
      <path class="cls-2" d="M157.72,815.4l19.58-13.48-19.29-28.01c-2.64-3.84-1.99-7.4,1.85-10.04l3.35-2.31c3.84-2.64,7.53-2.07,10.17,1.77l19.29,28.01,18.59-12.8-22.79-33.09c-2.64-3.84-1.99-7.4,1.85-10.05l4.71-3.24c3.84-2.65,7.4-2,10.04,1.85l32.18,46.71c2.64,3.84,2.07,7.53-1.77,10.17l-74.85,51.55c-3.84,2.65-7.49,1.87-10.13-1.98l-32.17-46.72c-2.65-3.84-1.99-7.4,1.85-10.05l4.71-3.24c3.84-2.65,7.4-2,10.05,1.85l22.78,33.09Z"/>
      <path class="cls-2" d="M135.48,665.36l4.05,13.39,29.09-8.8c4.46-1.35,7.65.36,9,4.82l2.7,8.93c1.35,4.46-.31,7.8-4.78,9.15l-86.98,26.3c-4.46,1.35-7.7-.51-9.05-4.97l-11.72-38.73c-6.49-21.46,5.16-38.03,23.45-43.56,14.83-4.49,28.98.2,36.85,13.22,9.88-4.24,18.36-13.09,15.84-21.44-.92-3.03-1.73-4.66-3.16-6.28-2.7-3.74-2.36-5.73.96-8.78l2.49-2.17c3.32-3.04,6.77-3.61,9.87-.62,4.12,4.26,7.34,9.73,9.26,16.06,7.53,24.91-16.85,38.88-27.88,43.48ZM117.15,663.99c-2.48-8.21-10.38-11.48-18.45-9.04-8.35,2.53-13.08,9.77-10.64,17.84l5.96,19.72,29.09-8.8-5.97-19.72Z"/>
      <path class="cls-2" d="M144.24,574.37l-89.92-38.69c-3.71-1.5-5.55-4.43-5.39-8.64l.41-10.67c.16-4.21,2.22-6.84,6.04-8.2l92.64-32.13c5.03-1.61,8.26.62,8.05,6.04l-.38,9.77c-.16,4.06-2.07,6.84-6.04,8.2l-14.04,4.73-1.56,40.6,13.48,5.64c3.85,1.65,5.7,4.44,5.55,8.5l-.37,9.47c-.21,5.41-3.6,7.39-8.49,5.4ZM116.63,508.86l-42.99,13.71,41.8,17.41,1.2-31.12Z"/>
      <path class="cls-2" d="M128.68,438.01c-3.25-1.19-7.46-3.7-10.93-6.89-3.01-2.71-3.25-6-1.9-9.67l2.49-6.79c1.82-4.94,4.98-5.71,8.75-2.88,2.8,1.99,5.38,3.25,6.79,3.77,9.04,3.32,19.74,2.11,24.2-10.04,4.51-12.29-2.01-22.05-18.68-28.17l-48.6-17.82c-4.38-1.6-5.9-4.89-4.29-9.27l3.22-8.75c1.6-4.38,4.94-6.04,9.32-4.44l48.6,17.83c30.23,11.08,39.52,31.64,30.14,57.22-10.67,29.1-33.27,31.71-49.09,25.91Z"/>
    </g>
  </g>
  <path class="cls-2" d="M533.21,748.68l71.99-11.21,61.08-37.85,33.46-70.57-39.62-100.61,35.23-93.92-30.81-72.01-64.96-45.85-51.17-5.5-34.79.09.27,94.58-112.5,1.3-.8,85.78,3.2,84.03-.36,84.16-1.11,84.49,65.59,3.41,65.32-.31ZM582.44,422.39l13.44,26.78-10.12,29.33-72.01,11.36.13-84.04,68.56,16.58ZM587.58,634.01l-74.43,17.43-2.91-81.03,81.78,20.99,5.44,24.81-9.87,17.8Z"/>
  <g>
    <rect class="cls-2" x="208.48" y="208.48" width="43.69" height="43.69" transform="translate(230.32 -95.4) rotate(45)"/>
    <rect class="cls-2" x="827.84" y="827.84" width="43.69" height="43.69" transform="translate(849.68 -351.95) rotate(45)"/>
  </g>
</svg>