<?xml version="1.0" encoding="UTF-8"?>
<svg id="Layer_1" data-name="Layer 1" xmlns="http://www.w3.org/2000/svg" viewBox="0 0 1080 210">
  <defs>
    <style>
      .cls-1 {
        fill: #ffde00;
      }
    </style>
  </defs>
  <path class="cls-1" d="M567.98,35.74l-26.32-23.14-33.95-8.63-21.71.97-31.72.19-17.75-1.01.36,32.57-2.51,33.51,1.91,33.46-1.89,33.45-.12,33.44.62,33.42,51.1.14h12.6l22.24-1.57,17.36-3.16,22.72-13.94,21.46-38.29,5.94-43.51-6.42-35.29-13.92-32.62ZM525.76,140.7l-17.4,17.56-21.46,2.54-.27-37.02-.61-37.2.14-37.12,16.79-1.7,28.44,20.93,5.09,34.95-10.7,37.06Z"/>
  <path class="cls-1" d="M893.95,164.93l-40.51-7.23-25.41-28.55,26.43-13.02,19.65-22.73,2.97-30.29-13.92-32.81-35.12-22.02-41.83-4.01-26.87-2.74-28.26.47,2.42,34.53-2.02,33.45-.85,33.46,2.79,33.47-1.33,33.52,1.65,31.57,51.01,3.67,1.16-35.39-1.51-33.48,20.97,30.45,31.75,20.22,38.32,11.63,39.52,7.82,48.91-1.38,1.21-40.49-35.13.46-35.99-.58ZM784.88,97.13l-3.29-47.66,47.51,8.92,4.64,13.72-20.29,21.07-28.57,3.94Z"/>
  <polygon class="cls-1" points="1077.93 99.67 1079.35 61.59 1060.97 60.67 1027.47 61.53 1029.02 107.7 1028.98 147.31 1018.06 163.34 976.9 164.2 976.82 206.99 1030.09 209.05 1062.84 201.42 1079.99 162.79 1080 131.26 1077.93 99.67"/>
  <path class="cls-1" d="M135.17,61.46l-14.13-33.02-29.79-21.03-23.47-2.52-15.95.04.12,43.37,31.44,7.6,6.16,12.28-4.64,13.45-33.02,5.21.06-38.54L.36,48.89l-.36,39.34,1.47,38.53-.16,38.6-.51,38.75,30.08,1.57,29.95-.14,33.01-5.14,28.01-17.36,15.34-32.36-18.17-46.14,16.15-43.07ZM85.75,152.95l-34.13,7.99-1.34-37.16,37.5,9.62,2.49,11.38-4.53,8.16Z"/>
  <polygon class="cls-1" points="1079.2 2.83 1054.07 .95 1027.8 3.08 1028.52 23.07 1027.57 49.15 1062.63 48.27 1078.99 48.91 1078.08 23.19 1079.2 2.83"/>
  <polygon class="cls-1" points="216 160.3 183.72 161.11 152.1 161.64 151.68 203.93 183.78 203.75 216.11 203.07 248.39 204.76 279.94 203.57 281.32 160.66 248.33 161.18 216 160.3"/>
  <polygon class="cls-1" points="683.75 49.82 720.86 50.16 721 2.68 689.26 2.73 658.17 1.72 627.04 4.14 594.71 2.02 595.3 36.56 595.36 70.03 594.52 103.51 595.82 137 597.04 170.54 595.61 204.14 627.06 203.79 658.44 205.01 689.87 202.36 720.48 203.47 720.97 161.32 695.62 161.88 648.09 159.93 648.55 123.53 661.2 123.15 694.35 123.73 693.92 87.19 645.95 89.06 646.94 49.54 683.75 49.82"/>
  <polygon class="cls-1" points="386.01 159.64 349.48 160.6 348.24 121.69 348.23 82.23 349.04 42.71 348.99 3.06 297.7 3.02 298.28 36.59 298.98 70.03 297.41 103.48 298.45 136.93 299.12 170.44 297.14 203.96 297.76 203.99 297.85 203.83 329.13 205.05 360.42 202.4 391.76 203.09 422.79 203.88 422.52 161.64 386.01 159.64"/>
  <path class="cls-1" d="M279.85,38.01l-26.47-27.89L216,1.2l-37.63,8.44-27.32,27.7-8.76,37.53,9.63,37.02,27.36,26.65,36.72,10.36,36.64-10.55,26.71-26.91,9.87-36.57-9.37-36.86ZM227.97,96.21h-24.44l-12.22-21.17,12.22-21.17h24.44l12.22,21.17-12.22,21.17Z"/>
  <path class="cls-1" d="M1003.73,115.22l-12.4-36.89-11.84-37.15-10.72-31.27-11.56-6.7-36.48,1.18-14.6,35.47-12.72,37.09-11.72,37.51-11.12,34.09,18.65,3.34,31.57-.16,6.62-26.69,31.23,1.16,7.4,24.37,45.73.7,3.08-4.48-11.1-31.57ZM933.58,99.86l9.98-37.57,10.6,37.81-20.59-.24Z"/>
</svg>